<svg xmlns="http://www.w3.org/2000/svg" width="32.704" height="32.701" viewBox="0 0 32.704 32.701">
  <g id="steering-wheel" transform="translate(0 -0.025)">
    <path id="Path_1" data-name="Path 1" d="M73.454,61.025A12.454,12.454,0,1,0,85.909,73.479,12.468,12.468,0,0,0,73.454,61.025Zm0,1.916a10.556,10.556,0,0,1,10.363,8.622c-.6-.093-4.161.567-6.87-2.319a4.79,4.79,0,0,0-6.987,0,7.531,7.531,0,0,1-5.491,2.319H63.091A10.556,10.556,0,0,1,73.454,62.941ZM63.682,77.423a5.764,5.764,0,0,1,6.875,6.189A10.587,10.587,0,0,1,63.682,77.423Zm8.763,6.546a7.68,7.68,0,0,0-9.318-8.384,10.551,10.551,0,0,1-.212-2.106c.635-.1,5.072.667,8.442-2.924a2.872,2.872,0,0,1,4.193,0c3.373,3.595,7.792,2.821,8.442,2.924a10.552,10.552,0,0,1-.212,2.106,7.68,7.68,0,0,0-9.318,8.384A10.517,10.517,0,0,1,72.445,83.969Zm3.906-.356a5.764,5.764,0,0,1,6.875-6.189A10.587,10.587,0,0,1,76.351,83.613Z" transform="translate(-57.104 -57.104)" fill="#a12020"/>
    <path id="Path_2" data-name="Path 2" d="M216.748,228.9a2.874,2.874,0,1,0-2.874,2.874A2.877,2.877,0,0,0,216.748,228.9Zm-2.874.958a.958.958,0,1,1,.958-.958A.959.959,0,0,1,213.874,229.857Z" transform="translate(-197.524 -211.566)" fill="#a12020"/>
    <path id="Path_3" data-name="Path 3" d="M27.9,4.827a16.343,16.343,0,1,0-11.548,27.9A16.35,16.35,0,0,0,27.9,4.827ZM16.35,30.81A14.434,14.434,0,1,1,30.785,16.375,14.451,14.451,0,0,1,16.35,30.81Z" fill="#a12020"/>
  </g>
</svg>
